<?xml version="1.0" encoding="utf-8"?>
<!-- Generator: Adobe Illustrator 19.1.0, SVG Export Plug-In . SVG Version: 6.00 Build 0)  -->
<svg version="1.1" id="Layer_1" xmlns="http://www.w3.org/2000/svg" xmlns:xlink="http://www.w3.org/1999/xlink" x="0px" y="0px"
	 viewBox="0 0 168 168" style="enable-background:new 0 0 168 168;" xml:space="preserve">
<style type="text/css">
	.st0{fill:#212121;}
</style>
<g>
	<polygon class="st0" points="107.3,105 74.2,50.3 65.9,50.3 105.7,117.7 115.3,117.7 115.3,74.4 102.7,74.4 102.7,82.4 107.3,82.4 
			"/>
	<polygon class="st0" points="53.7,50.3 53.7,109.8 53.7,117.7 61.9,117.7 66.3,117.7 66.3,109.8 61.9,109.8 61.8,63.2 95.4,117.7 
		103.9,117.7 63.6,50.3 	"/>
	<path class="st0" d="M167.5,82.7L85.3,0.5c-0.7-0.7-1.8-0.7-2.5,0L0.5,82.7C0.2,83.1,0,83.5,0,84c0,0.5,0.2,0.9,0.5,1.3l82.2,82.2
		c0.3,0.3,0.8,0.5,1.3,0.5s0.9-0.2,1.3-0.5l82.2-82.2C168.2,84.6,168.2,83.4,167.5,82.7z M84,163.7L4.3,84L84,4.3L163.7,84L84,163.7
		z"/>
	<path class="st0" d="M82.7,7.2L7.2,82.7c-0.3,0.3-0.5,0.8-0.5,1.3c0,0.5,0.2,0.9,0.5,1.3l75.6,75.6c0.3,0.3,0.8,0.5,1.3,0.5
		s0.9-0.2,1.3-0.5l75.6-75.6c0.7-0.7,0.7-1.8,0-2.5L85.3,7.2C84.6,6.5,83.4,6.5,82.7,7.2z M157,84l-73,73L11,84l73-73L157,84z"/>
</g>
</svg>
